<svg id="Layer_1" data-name="Layer 1" xmlns="http://www.w3.org/2000/svg" viewBox="0 0 170.501 105.417">
  <defs>
    <style>
      .cls-1 {
        fill: #009edd;
      }

      .cls-2 {
        fill: #fff;
      }
    </style>
  </defs>
  <title>83cdcfa3-b2be-484a-ab92-f4de96bac3c1</title>
  <rect class="cls-1" width="170.501" height="105.417"/>
  <path class="cls-2" d="M131.379,22.494a11.849,11.849,0,1,0,11.848,11.849,11.862,11.862,0,0,0-11.848-11.849m9.241,5.236a16.177,16.177,0,0,1-1.907,1.1,12.356,12.356,0,0,0-1.414-2.214,11.176,11.176,0,0,0,1.379-.989,11.429,11.429,0,0,1,1.942,2.1m-4.985-3.93a11.294,11.294,0,0,1,2.655,1.523,10.4,10.4,0,0,1-1.306.921,12.444,12.444,0,0,0-1.95-1.8,5.6,5.6,0,0,0,.6-.641m.919,2.69a11.045,11.045,0,0,1-2,.833,17.947,17.947,0,0,0-.988-1.932,5.362,5.362,0,0,0,1.081-.632,11.967,11.967,0,0,1,1.9,1.731m-1.4-2.87a4.895,4.895,0,0,1-.525.534,11.976,11.976,0,0,0-1.986-1.1,11.043,11.043,0,0,1,2.511.563m-.928.846a4.8,4.8,0,0,1-.908.508,18.581,18.581,0,0,0-1.143-1.591,12.063,12.063,0,0,1,2.051,1.083m-2.6-1a16.949,16.949,0,0,1,1.223,1.677,4.986,4.986,0,0,1-1.223.214Zm0,2.38a5.514,5.514,0,0,0,1.49-.274,16.412,16.412,0,0,1,.972,1.884,10.85,10.85,0,0,1-2.462.34Zm-.493-2.358v1.869a5.014,5.014,0,0,1-1.207-.214,17.638,17.638,0,0,1,1.207-1.655m-1.673,1.487a4.65,4.65,0,0,1-.91-.509,11.922,11.922,0,0,1,2.043-1.078,17.278,17.278,0,0,0-1.133,1.587m.683-1.925a12.332,12.332,0,0,0-2,1.1,5.877,5.877,0,0,1-.525-.536,11.2,11.2,0,0,1,2.526-.567m8.118,20.336a2.423,2.423,0,0,1-1.524-2.5c.084-.449.392-.252.588-.252a4.585,4.585,0,0,0,3.468-1.678,5.258,5.258,0,0,0-.338-7.216c-2.507-2.413-5.174-1.991-6.893.178a2.624,2.624,0,0,1-1.956.744c-1.1-.042-.408.827-.408,1.007s-.168.309-.265.281c-.375-.107-.225.447-.225.615a.257.257,0,0,1-.236.252c-.464,0-.337.417-.322.533a.409.409,0,0,1-.183.389,1.014,1.014,0,0,0-.321.728c0,.5.461.852,1.233,1.427a1.84,1.84,0,0,1,.879,1.511,4.587,4.587,0,0,0,.226,1.441.981.981,0,0,1-.883,1.467,14.955,14.955,0,0,0-3.8,1.162,4.6,4.6,0,0,1-2.459.164,11.528,11.528,0,0,1-1.163-.943,1.8,1.8,0,0,1,.378-1.46,2,2,0,0,0,1.438.418,16.925,16.925,0,0,0,2.392-.348.653.653,0,0,1,.518,0,1.348,1.348,0,0,0,1.985-.979c.378-1.3-.516-.937-.628-.881s-.268.042-.212-.069c.167-.332-.082-.3-.223-.31a1.688,1.688,0,0,0-.992.489.349.349,0,0,1-.364.1c-.482-.24-1.918.107-2.364-.672a26.2,26.2,0,0,0-.572-3.915.536.536,0,0,1,.055-.516c.365-.548,1.37.04,1.917.027a.976.976,0,0,0,.937-.51c.171-.215.3-.1.391-.154.119-.077.007-.231.049-.315s.091-.042.2-.14-.016-.307.042-.391c.161-.242.6-.049.337-.684a1.029,1.029,0,0,1,.251-.979c.318-.409,1.541-2.13-.615-3.918-2.056-1.7-4.141-1.566-5.483-.112s-.671,3.582-.531,4.14a1.182,1.182,0,0,1-.727,1.287,10.423,10.423,0,0,0-1.839,1.284A11.307,11.307,0,0,1,127.132,23.8a5.757,5.757,0,0,0,.6.641c-.475.346-1.506,1.268-1.506,1.268s.141.022.271.054c.092.022.285.08.285.08s.909-.773,1.336-1.081a5.3,5.3,0,0,0,1.08.633c-.207.349-.724,1.323-.724,1.323s.12.071.226.143a1.551,1.551,0,0,1,.176.135s.565-1.065.779-1.42a5.457,5.457,0,0,0,1.473.271v1.952c-.278-.008-.995-.037-1.284-.067l-.183-.018.1.152a2.936,2.936,0,0,1,.189.326l.021.041.048.005c.21.017.863.04,1.107.046v3.551h.493v-.812c.722-.035,1.322-.085,2.05-.148l.031,0,.637-.563-.347.03c-.768.1-1.442.147-2.054.181l-.317.018V28.28a11.391,11.391,0,0,0,2.657-.373c.239.586.689,2.009.689,2.009l.463-.145s-.449-1.412-.685-2a11.54,11.54,0,0,0,2.128-.9,11.763,11.763,0,0,1,1.4,2.176c-.349.162-.987.388-.986.388a5.286,5.286,0,0,1,.9.177s.18-.077.3-.128c.045.1.134.308.134.308l.638.283-.074-.177s-.211-.505-.261-.622a17.045,17.045,0,0,0,1.975-1.142,11.354,11.354,0,0,1-2.639,15.255"/>
  <path class="cls-2" d="M118.457,25.643l-.185.164c-.695.615-2.283,2.239-2.039,4.021,0,.006.026.123.026.123l.079.354.22-.2a7.339,7.339,0,0,0,2-4.138l.085-.488Z"/>
  <path class="cls-2" d="M115.233,28.72l-.08.216a8.185,8.185,0,0,0-.418,1.753,5.351,5.351,0,0,0,.907,4.082l.111.147.119.151.151-.755a14.834,14.834,0,0,0-.543-5.383l-.169-.423Z"/>
  <path class="cls-2" d="M114.056,33.533l-.015.22c-.085,1.2-.024,4.152,2.369,5.719l.284.184-.013-.336a15.021,15.021,0,0,0-2.332-5.668l-.279-.34Z"/>
  <path class="cls-2" d="M114.468,38.82l.041.2c.349,1.7,1.96,4.449,4.446,5.246l.34.11-.122-.335a15.448,15.448,0,0,0-4.4-5.2l-.347-.221Z"/>
  <path class="cls-2" d="M119.463,28.2l-.2.119c-1.853,1.13-2.718,2.5-2.652,4.189l.016.386.269-.226a11.1,11.1,0,0,0,2.625-4.148l.133-.439Z"/>
  <path class="cls-2" d="M118.374,31.9l-.141.132a5.663,5.663,0,0,0-1.875,4.1,3.9,3.9,0,0,0,.211.991l.108.323.2-.279a11.494,11.494,0,0,0,1.652-5.018l-.016-.383Z"/>
  <path class="cls-2" d="M118.454,35.4l-.105.154a5.967,5.967,0,0,0-1.143,3.414,4.213,4.213,0,0,0,.762,2.285l.162.242.136-.255a12.242,12.242,0,0,0,.561-4.277,5.686,5.686,0,0,0-.168-1.361l-.1-.356Z"/>
  <path class="cls-2" d="M119.35,39.147l-.049.162a6.668,6.668,0,0,0-.322,2.167,4.25,4.25,0,0,0,2.063,3.64l.223.141.049-.3c0-.006.02-.241.02-.241a14.5,14.5,0,0,0-1.728-5.458l-.206-.269Z"/>
  <path class="cls-2" d="M116.74,44.115l.1.161c1,1.671,2.689,3.826,5.853,3.274l.264-.047-.15-.221c-.591-.879-4.431-3.045-5.788-3.267l-.371-.062Z"/>
  <path class="cls-2" d="M121.421,48.359h0l-.5.134.476.2a9.8,9.8,0,0,0,6,.575,3.276,3.276,0,0,0,1.291-.886c2.574.267,4.985,2.407,6.39,4.155l.076.086.108-.034a1.6,1.6,0,0,0,.5-.352l.1-.107-.088-.118a12.733,12.733,0,0,0-3.863-3.152c-2.066-1.007-5.712-1.794-10.493-.5"/>
  <path class="cls-2" d="M121.528,43.009l.028.168c.3,1.9,1.071,4.383,4.273,4.108l.2-.017-.051-.2c-.216-.862-3.15-3.365-4.174-4.069l-.308-.16Z"/>
  <path class="cls-2" d="M144.159,25.477l.084.489a7.346,7.346,0,0,0,2,4.137l.222.2.077-.354.025-.125c.245-1.781-1.342-3.405-2.037-4.021l-.186-.163Z"/>
  <path class="cls-2" d="M147.492,28.508l-.168.424a14.786,14.786,0,0,0-.546,5.382l.152.756.119-.152.113-.147a5.351,5.351,0,0,0,.9-4.081,8.213,8.213,0,0,0-.416-1.754l-.081-.216Z"/>
  <path class="cls-2" d="M148.732,33.313l-.279.34a14.986,14.986,0,0,0-2.33,5.668l-.013.335.281-.184c2.393-1.567,2.454-4.521,2.371-5.719l-.017-.219Z"/>
  <path class="cls-2" d="M148.377,38.618l-.348.221a15.437,15.437,0,0,0-4.4,5.2l-.124.336.341-.11c2.486-.8,4.1-3.548,4.446-5.246l.044-.2Z"/>
  <path class="cls-2" d="M143.238,28.024l.128.441a11.047,11.047,0,0,0,2.539,4.2l.267.229.022-.386c.1-1.687-.741-3.073-2.569-4.238l-.2-.125Z"/>
  <path class="cls-2" d="M144.29,31.767l-.014.383a11.518,11.518,0,0,0,1.651,5.019l.2.277.109-.322a3.843,3.843,0,0,0,.209-.991,5.656,5.656,0,0,0-1.875-4.1l-.138-.133Z"/>
  <path class="cls-2" d="M144.249,35.248l-.106.356a5.608,5.608,0,0,0-.165,1.361,12.278,12.278,0,0,0,.558,4.277l.137.255.164-.241a4.214,4.214,0,0,0,.758-2.286,5.941,5.941,0,0,0-1.141-3.413l-.1-.155Z"/>
  <path class="cls-2" d="M143.4,38.988l-.2.268a14.469,14.469,0,0,0-1.727,5.459s.018.235.019.241l.049.3.224-.141a4.251,4.251,0,0,0,2.064-3.64,6.642,6.642,0,0,0-.324-2.167l-.052-.162Z"/>
  <path class="cls-2" d="M146.157,43.953l-.369.062c-1.359.221-5.2,2.388-5.79,3.267l-.149.221.264.046c3.166.554,4.856-1.6,5.852-3.273l.1-.161Z"/>
  <path class="cls-2" d="M130.889,48.855a12.687,12.687,0,0,0-3.861,3.153l-.09.117.1.107a1.611,1.611,0,0,0,.5.353l.109.034.075-.087c1.4-1.748,3.815-3.888,6.389-4.155a3.263,3.263,0,0,0,1.294.887,9.8,9.8,0,0,0,5.995-.576l.477-.2-.5-.134c-4.782-1.3-8.428-.511-10.493.5"/>
  <path class="cls-2" d="M141.3,42.839l-.307.16c-1.025.7-3.958,3.207-4.174,4.069l-.05.2.2.016c3.2.276,3.972-2.212,4.275-4.107l.028-.168Z"/>
  <path class="cls-2" d="M59.413,23.33h4.046v3.689H59.413Zm.321,7.879h3.4V49.184h-3.4Z"/>
  <path class="cls-2" d="M34.054,31.225h3.4V49.2H34.125V46.55h-.071a6.811,6.811,0,0,1-6.161,3.187c-3.759,0-5.907-2.864-5.907-6.481V31.225h3.4V41.861c0,3.116.716,5.406,3.975,5.406a4.264,4.264,0,0,0,4.009-2.576,13.337,13.337,0,0,0,.682-4.227Z"/>
  <path class="cls-2" d="M44.248,33.874h.072a6.235,6.235,0,0,1,5.442-3.185c1.253,0,6.8.322,6.8,6.086V49.2h-3.4V37.886c0-2.972-1.254-4.583-4.119-4.583a4.674,4.674,0,0,0-3.294,1.324c-.5.5-1.432,1.289-1.432,4.8V49.2h-3.4V31.225h3.33Z"/>
  <path class="cls-2" d="M77.381,36.991c-.179-2.242-1.244-3.8-3.664-3.8-3.235,0-4.482,2.8-4.482,7.007S70.482,47.2,73.717,47.2c2.238,0,3.627-1.454,3.8-4.021H80.9c-.289,4.021-3.274,6.474-7.225,6.474-5.726,0-8-4.053-8-9.32,0-5.237,2.631-9.609,8.292-9.609,3.771,0,6.614,2.387,6.787,6.264Z"/>
  <path class="cls-2" d="M85.984,40.831c-.249,3.132,1.032,6.372,4.48,6.372,2.633,0,3.949-1.03,4.338-3.634h3.562c-.536,4.062-3.667,6.086-7.933,6.086-5.729,0-8.009-4.053-8.009-9.319,0-5.237,2.638-9.61,8.293-9.61,5.334.112,7.858,3.488,7.858,8.438v1.667Zm9.036-2.344c.071-2.988-1.284-5.3-4.556-5.3-2.814,0-4.48,2.375-4.48,5.3Z"/>
  <path class="cls-2" d="M102.4,49.123V33.612H99.33V31.259H102.4V27.421c.11-3.915,3.059-4.945,5.586-4.945a14.518,14.518,0,0,1,2.424.352v2.81c-.575-.03-1.143-.108-1.714-.108-1.917,0-3.021.5-2.917,2.457v3.272h4.128v2.353h-4.128V49.123Z"/>
  <rect class="cls-2" x="21.917" y="61.51" width="125.607" height="0.684"/>
  <path class="cls-2" d="M24,85.978v-10.1H21.717V74.634H24V72.216c0-1.944.791-2.825,2.735-2.825a6.217,6.217,0,0,1,1.288.248v1.085a5.173,5.173,0,0,0-.836-.091c-1.854,0-1.9.927-1.831,2.554v1.447h2.576v1.243H25.356v10.1Z"/>
  <path class="cls-2" d="M39.017,80.306c0,2.982-1.672,6.011-5.288,6.011s-5.287-3.029-5.287-6.011,1.671-6.012,5.287-6.012,5.288,3.028,5.288,6.012m-5.288-4.769c-2.734,0-3.819,2.667-3.819,4.769s1.085,4.768,3.819,4.768,3.819-2.667,3.819-4.768-1.084-4.769-3.819-4.769"/>
  <path class="cls-2" d="M42.347,85.978H40.991V77.187c.023-.881-.068-1.785-.113-2.553h1.4l.068,1.672h.045a2.918,2.918,0,0,1,2.553-2.011c.452-.023.9,0,1.357.022v1.311c-.272-.023-.565-.09-.836-.09-2.011,0-3.074,1.446-3.119,3.615Z"/>
  <path class="cls-2" d="M52.877,80.622c.046,2.418,1.153,4.452,3.932,4.452a3.379,3.379,0,0,0,3.277-2.712H61.51a4.761,4.761,0,0,1-5.13,3.955c-3.389,0-4.971-2.916-4.971-6.011,0-3.074,1.694-6.011,5.062-6.011,3.8,0,5.175,2.779,5.175,6.327Zm7.3-1.243c-.158-2.192-1.333-3.841-3.684-3.841-2.214,0-3.39,1.853-3.57,3.841Z"/>
  <polygon class="cls-2" points="63.476 74.633 67.386 84.102 71.16 74.633 72.651 74.633 68.154 85.977 66.617 85.977 61.984 74.633 63.476 74.633"/>
  <path class="cls-2" d="M74.4,80.622c.045,2.418,1.152,4.452,3.931,4.452a3.379,3.379,0,0,0,3.277-2.712h1.424a4.761,4.761,0,0,1-5.13,3.955c-3.389,0-4.971-2.916-4.971-6.011,0-3.074,1.694-6.011,5.062-6.011,3.8,0,5.175,2.779,5.175,6.327Zm7.3-1.243c-.158-2.192-1.333-3.841-3.684-3.841-2.214,0-3.39,1.853-3.57,3.841Z"/>
  <path class="cls-2" d="M86.636,85.978H85.28V77.187c.023-.881-.068-1.785-.113-2.553h1.4l.068,1.672h.045a2.918,2.918,0,0,1,2.553-2.011c.452-.023.9,0,1.357.022v1.311c-.272-.023-.565-.09-.836-.09-2.011,0-3.074,1.446-3.119,3.615Z"/>
  <polygon class="cls-2" points="93.506 74.633 97.325 84.125 101.122 74.633 102.591 74.633 96.33 90.316 94.839 90.316 96.556 85.977 91.856 74.633 93.506 74.633"/>
  <path class="cls-2" d="M115.516,78.113c-.113-1.74-1.22-2.576-3.1-2.576-2.079,0-3.368,2.169-3.368,4.745,0,2.6,1.289,4.791,3.368,4.791a2.868,2.868,0,0,0,3.1-2.644h1.469a4.03,4.03,0,0,1-4.43,3.887c-3.389,0-4.971-2.915-4.971-6.011,0-3.074,1.694-6.011,5.062-6.011a4.012,4.012,0,0,1,4.339,3.819Z"/>
  <path class="cls-2" d="M120.234,76.351h.045a3.9,3.9,0,0,1,3.548-2.057c3.706,0,4,3.277,4,4.588v7.1h-1.356V78.656a2.806,2.806,0,0,0-2.983-3.119c-2.237,0-3.254,1.876-3.254,3.91v6.531h-1.356V69.662h1.356Z"/>
  <path class="cls-2" d="M131.578,71.356H130v-1.7h1.582Zm-.112,14.622H130.11V74.634h1.356Z"/>
  <rect class="cls-2" x="134.132" y="69.662" width="1.356" height="16.316"/>
  <path class="cls-2" d="M146.16,84.3l-.046-.09a4.605,4.605,0,0,1-3.886,2.1c-3.367,0-4.655-3.21-4.655-6.057,0-2.938,1.288-5.966,4.655-5.966a4.53,4.53,0,0,1,3.886,2.057l.046-.046V69.661h1.356V83.425c0,.88.068,1.784.113,2.552h-1.4Zm-3.706-8.768c-2.576,0-3.412,2.4-3.412,4.565,0,2.1.61,4.972,3.209,4.972,2.96,0,3.863-2.463,3.863-5.04,0-2.3-1.016-4.5-3.66-4.5"/>
</svg>
