<svg id="Layer_1" data-name="Layer 1" xmlns="http://www.w3.org/2000/svg" xmlns:xlink="http://www.w3.org/1999/xlink" viewBox="0 0 118.6 63.32"><defs><style>.cls-1{fill:none;}.cls-2{fill:#00aeef;}.cls-3{clip-path:url(#clip-path);}.cls-4{clip-path:url(#clip-path-2);}</style><clipPath id="clip-path" transform="translate(-900.33 -508.64)"><rect class="cls-1" x="900.33" y="508.64" width="118.6" height="63.32"/></clipPath><clipPath id="clip-path-2" transform="translate(-900.33 -508.64)"><rect class="cls-1" x="900.33" y="508.64" width="118.6" height="63.32"/></clipPath></defs><title>UNICEF</title><path class="cls-2" d="M1009.1,528.16a2.26,2.26,0,0,1-1.42-2.34c.08-.42.37-.24.55-.24a4.28,4.28,0,0,0,3.24-1.56,4.92,4.92,0,0,0-.32-6.74c-2.34-2.25-4.83-1.86-6.43.17a2.44,2.44,0,0,1-1.83.69c-1,0-.38.78-.38.94s-.16.29-.25.27c-.35-.1-.21.41-.21.57a.24.24,0,0,1-.22.24c-.43,0-.31.38-.3.49a.39.39,0,0,1-.17.37.9.9,0,0,0-.3.67c0,.48.43.8,1.15,1.34a1.69,1.69,0,0,1,.82,1.41,4.61,4.61,0,0,0,.21,1.34.91.91,0,0,1-.82,1.37,13.81,13.81,0,0,0-3.55,1.09,4.25,4.25,0,0,1-2.29.15,10.23,10.23,0,0,1-1.09-.88,1.67,1.67,0,0,1,.35-1.36,2,2,0,0,0,1.35.39,16.58,16.58,0,0,0,2.23-.33.6.6,0,0,1,.48,0,1.25,1.25,0,0,0,1.85-.91c.36-1.22-.48-.88-.58-.82s-.25,0-.2-.07c.16-.31-.08-.28-.21-.29a1.55,1.55,0,0,0-.92.46.32.32,0,0,1-.34.09c-.45-.22-1.79.1-2.21-.63a24.87,24.87,0,0,0-.53-3.65.48.48,0,0,1,0-.48c.34-.51,1.28,0,1.79,0a.9.9,0,0,0,.87-.47c.16-.2.28-.09.37-.15s0-.21,0-.29.09,0,.19-.13,0-.29,0-.37.56,0,.31-.63a1,1,0,0,1,.24-.92c.29-.38,1.44-2-.58-3.66s-3.86-1.46-5.11-.1-.63,3.34-.5,3.86a1.12,1.12,0,0,1-.68,1.21,9.83,9.83,0,0,0-1.71,1.19,10.55,10.55,0,0,1,6.64-9.6,6.32,6.32,0,0,0,.56.6c-.44.32-1.41,1.19-1.41,1.19l.26,0,.26.07s.85-.72,1.25-1a4.85,4.85,0,0,0,1,.59c-.19.33-.68,1.24-.68,1.24l.21.13a1.08,1.08,0,0,1,.17.13s.53-1,.73-1.33a4.88,4.88,0,0,0,1.37.25v1.83c-.26,0-.93,0-1.2-.07h-.17l.1.14a3.18,3.18,0,0,1,.17.3l0,0h0l1,0v3.31h.46v-.76c.67,0,1.23-.07,1.91-.13h0l.6-.52-.33,0c-.71.09-1.34.13-1.91.16l-.3,0v-2.1a11,11,0,0,0,2.48-.35c.22.55.64,1.87.64,1.87l.44-.13s-.42-1.32-.64-1.87a10.15,10.15,0,0,0,2-.84,10.83,10.83,0,0,1,1.31,2c-.32.15-.92.36-.92.36a5.54,5.54,0,0,1,.84.17l.28-.12.12.29.6.26-.07-.16s-.2-.48-.25-.58a18.08,18.08,0,0,0,1.85-1.07,10.61,10.61,0,0,1-2.47,14.24m-7.57-19a10.32,10.32,0,0,0-1.87,1,5.75,5.75,0,0,1-.49-.5,10,10,0,0,1,2.36-.53m-.64,1.79a3.7,3.7,0,0,1-.85-.47,11.24,11.24,0,0,1,1.91-1,15.34,15.34,0,0,0-1.06,1.48m1.56-1.38v1.74a4.87,4.87,0,0,1-1.13-.2,15.2,15.2,0,0,1,1.13-1.54m.46,2.2a5.42,5.42,0,0,0,1.39-.26,15.38,15.38,0,0,1,.91,1.76,10.54,10.54,0,0,1-2.3.32Zm0-2.23a16.12,16.12,0,0,1,1.14,1.57,4.87,4.87,0,0,1-1.14.2Zm2.43.94a4.16,4.16,0,0,1-.85.47c-.32-.5-.68-1-1.06-1.48a10.57,10.57,0,0,1,1.91,1m.87-.79a5.78,5.78,0,0,1-.49.5,12,12,0,0,0-1.86-1,10.4,10.4,0,0,1,2.35.53m1.3,2.68a9.73,9.73,0,0,1-1.86.77,17.94,17.94,0,0,0-.92-1.8,5.43,5.43,0,0,0,1-.59,11.31,11.31,0,0,1,1.77,1.62m-.85-2.51a10.15,10.15,0,0,1,2.47,1.42,11.5,11.5,0,0,1-1.21.86,12.05,12.05,0,0,0-1.82-1.68,6.32,6.32,0,0,0,.56-.6m4.65,3.66a15,15,0,0,1-1.78,1,11.18,11.18,0,0,0-1.32-2.07,12,12,0,0,0,1.29-.92,10.8,10.8,0,0,1,1.81,1.95m-8.63-4.88a11.06,11.06,0,1,0,11.06,11.06,11.08,11.08,0,0,0-11.06-11.06" transform="translate(-900.33 -508.64)"/><path class="cls-2" d="M990.62,511.6l-.17.15c-.65.57-2.13,2.09-1.9,3.75l0,.12.08.33.2-.19a6.86,6.86,0,0,0,1.87-3.86l.08-.46Z" transform="translate(-900.33 -508.64)"/><path class="cls-2" d="M987.61,514.47l-.07.2a7.83,7.83,0,0,0-.39,1.64,5,5,0,0,0,.84,3.81l.11.13.11.15.14-.71a13.68,13.68,0,0,0-.51-5l-.15-.4Z" transform="translate(-900.33 -508.64)"/><path class="cls-2" d="M986.51,519v.21c-.08,1.11,0,3.87,2.21,5.34l.27.17,0-.32a14,14,0,0,0-2.17-5.29l-.26-.31Z" transform="translate(-900.33 -508.64)"/><path class="cls-2" d="M986.9,523.9l0,.19a7,7,0,0,0,4.15,4.89l.32.1-.12-.31a14.42,14.42,0,0,0-4.11-4.86l-.32-.2Z" transform="translate(-900.33 -508.64)"/><path class="cls-2" d="M991.56,514l-.18.12c-1.73,1-2.54,2.33-2.48,3.91l0,.36.25-.21a10.57,10.57,0,0,0,2.45-3.88l.12-.41Z" transform="translate(-900.33 -508.64)"/><path class="cls-2" d="M990.55,517.44l-.14.12a5.3,5.3,0,0,0-1.75,3.83,3.63,3.63,0,0,0,.2.92l.1.3.19-.26a10.76,10.76,0,0,0,1.54-4.68l0-.36Z" transform="translate(-900.33 -508.64)"/><path class="cls-2" d="M990.62,520.71l-.1.14a5.61,5.61,0,0,0-1.07,3.19,3.89,3.89,0,0,0,.72,2.13l.15.23.12-.24a11.37,11.37,0,0,0,.53-4,5.51,5.51,0,0,0-.16-1.28l-.09-.33Z" transform="translate(-900.33 -508.64)"/><path class="cls-2" d="M991.46,524.2l-.05.15a6.14,6.14,0,0,0-.3,2,4,4,0,0,0,1.93,3.39l.2.13,0-.28,0-.22a13.73,13.73,0,0,0-1.61-5.1l-.2-.25Z" transform="translate(-900.33 -508.64)"/><path class="cls-2" d="M989,528.84l.09.15c.93,1.56,2.51,3.57,5.46,3l.25,0-.14-.21c-.55-.82-4.14-2.84-5.4-3l-.35,0Z" transform="translate(-900.33 -508.64)"/><path class="cls-2" d="M993.39,532.8h0l-.46.12.44.19a9.13,9.13,0,0,0,5.6.53,3,3,0,0,0,1.2-.82c2.4.25,4.65,2.24,6,3.87l.07.08.1,0a1.43,1.43,0,0,0,.47-.33l.09-.1-.08-.11a12,12,0,0,0-3.61-2.94,14.09,14.09,0,0,0-9.79-.46" transform="translate(-900.33 -508.64)"/><path class="cls-2" d="M993.49,527.81l0,.15c.29,1.77,1,4.09,4,3.84l.19,0,0-.18c-.21-.81-2.94-3.15-3.9-3.8l-.29-.15Z" transform="translate(-900.33 -508.64)"/><path class="cls-2" d="M1014.61,511.44l.08.46a6.86,6.86,0,0,0,1.87,3.86l.2.19.08-.33,0-.12c.23-1.66-1.25-3.18-1.9-3.75l-.17-.15Z" transform="translate(-900.33 -508.64)"/><rect class="cls-1" width="118.6" height="63.32"/><g class="cls-3"><path class="cls-2" d="M1017.72,514.27l-.15.4a13.68,13.68,0,0,0-.51,5l.14.71.11-.15.11-.13a5,5,0,0,0,.84-3.81,7.83,7.83,0,0,0-.39-1.64l-.07-.2Z" transform="translate(-900.33 -508.64)"/><path class="cls-2" d="M1018.88,518.76l-.26.31a13.85,13.85,0,0,0-2.17,5.29l0,.32.27-.17c2.23-1.47,2.29-4.22,2.21-5.34l0-.21Z" transform="translate(-900.33 -508.64)"/></g><g class="cls-4"><path class="cls-2" d="M1018.55,523.71l-.32.2a14.42,14.42,0,0,0-4.11,4.86l-.12.31.32-.1a7,7,0,0,0,4.15-4.89l0-.19Z" transform="translate(-900.33 -508.64)"/><path class="cls-2" d="M1013.75,513.82l.12.41a10.28,10.28,0,0,0,2.37,3.92l.25.22,0-.36c.09-1.58-.69-2.87-2.4-4l-.18-.12Z" transform="translate(-900.33 -508.64)"/><path class="cls-2" d="M1014.73,517.31v.36a10.84,10.84,0,0,0,1.54,4.69l.19.25.1-.3a3.21,3.21,0,0,0,.19-.92,5.26,5.26,0,0,0-1.74-3.83l-.13-.12Z" transform="translate(-900.33 -508.64)"/><path class="cls-2" d="M1014.7,520.56l-.1.33a5.49,5.49,0,0,0-.16,1.27,11.68,11.68,0,0,0,.52,4l.13.24.15-.23A3.88,3.88,0,0,0,1016,524a5.52,5.52,0,0,0-1.06-3.19l-.1-.14Z" transform="translate(-900.33 -508.64)"/><path class="cls-2" d="M1013.9,524.05l-.19.25a13.55,13.55,0,0,0-1.61,5.1l0,.22,0,.29.21-.14a4,4,0,0,0,1.93-3.39,6.14,6.14,0,0,0-.3-2l0-.15Z" transform="translate(-900.33 -508.64)"/><path class="cls-2" d="M1016.48,528.69l-.35.06c-1.26.2-4.85,2.22-5.4,3l-.14.21.25,0c2.95.52,4.53-1.49,5.46-3l.09-.15Z" transform="translate(-900.33 -508.64)"/><path class="cls-2" d="M1002.23,533.26a12,12,0,0,0-3.61,3l-.08.1.09.1a1.43,1.43,0,0,0,.47.33l.1,0,.07-.09c1.31-1.63,3.56-3.62,6-3.87a3,3,0,0,0,1.2.82,9.13,9.13,0,0,0,5.6-.53l.44-.19-.46-.12c-4.46-1.21-7.87-.48-9.79.46" transform="translate(-900.33 -508.64)"/><path class="cls-2" d="M1012,527.65l-.29.15c-1,.65-3.7,3-3.9,3.79l0,.19.18,0c3,.25,3.71-2.07,4-3.84l0-.15Z" transform="translate(-900.33 -508.64)"/><path class="cls-2" d="M935.81,516.79H939v16.78h-3.18Zm-.3-7.35h3.78v3.44h-3.78Z" transform="translate(-900.33 -508.64)"/><path class="cls-2" d="M911.84,516.81H915v16.78h-3.11v-2.48h-.07a6.35,6.35,0,0,1-5.75,3c-3.51,0-5.51-2.68-5.51-6.05V516.81h3.18v9.92c0,2.91.66,5,3.7,5a4,4,0,0,0,3.75-2.4,12.47,12.47,0,0,0,.63-4Z" transform="translate(-900.33 -508.64)"/><path class="cls-2" d="M921.36,519.28h.06a5.81,5.81,0,0,1,5.08-3c1.17,0,6.35.3,6.35,5.68v11.6h-3.17V523c0-2.77-1.17-4.27-3.84-4.27a4.39,4.39,0,0,0-3.08,1.23c-.47.47-1.34,1.21-1.34,4.48v9.13h-3.17V516.81h3.11Z" transform="translate(-900.33 -508.64)"/><path class="cls-2" d="M952.28,522.19c-.16-2.09-1.16-3.55-3.42-3.55-3,0-4.18,2.62-4.18,6.54s1.16,6.54,4.18,6.54c2.09,0,3.39-1.36,3.55-3.75h3.16c-.27,3.75-3.05,6-6.74,6-5.35,0-7.47-3.78-7.47-8.7s2.45-9,7.74-9c3.52,0,6.17,2.23,6.33,5.85Z" transform="translate(-900.33 -508.64)"/><path class="cls-2" d="M968.75,523.59c.06-2.79-1.2-5-4.26-5-2.62,0-4.18,2.22-4.18,5Zm-8.44,2.18c-.23,2.93,1,6,4.18,6,2.46,0,3.69-1,4-3.39h3.33c-.5,3.79-3.43,5.68-7.41,5.68-5.34,0-7.47-3.78-7.47-8.7s2.46-9,7.74-9c5,.11,7.33,3.26,7.33,7.88v1.55Z" transform="translate(-900.33 -508.64)"/><path class="cls-2" d="M975.64,533.51V519h-2.87v-2.19h2.87v-3.58c.1-3.66,2.85-4.62,5.21-4.62a13.54,13.54,0,0,1,2.26.33v2.62c-.53,0-1.06-.1-1.6-.1-1.79,0-2.82.47-2.72,2.29v3.06h3.85V519h-3.85v14.48Z" transform="translate(-900.33 -508.64)"/><rect class="cls-2" x="0.19" y="36.43" width="117.24" height="0.64"/><path class="cls-2" d="M902.46,567.91v-9.43h-2.13v-1.16h2.13v-2.25c0-1.82.74-2.64,2.55-2.64a6.06,6.06,0,0,1,1.2.23v1a5,5,0,0,0-.78-.08c-1.73,0-1.77.87-1.7,2.38v1.35h2.4v1.16h-2.4v9.43Z" transform="translate(-900.33 -508.64)"/><path class="cls-2" d="M911.54,558.17c-2.55,0-3.56,2.49-3.56,4.45s1,4.45,3.56,4.45,3.56-2.49,3.56-4.45-1-4.45-3.56-4.45m4.94,4.45c0,2.78-1.57,5.61-4.94,5.61s-4.94-2.83-4.94-5.61,1.56-5.61,4.94-5.61,4.94,2.82,4.94,5.61" transform="translate(-900.33 -508.64)"/><path class="cls-2" d="M919.58,567.91h-1.26v-8.2c0-.83-.06-1.67-.11-2.39h1.31l.06,1.56h0A2.72,2.72,0,0,1,922,557c.42,0,.84,0,1.27,0v1.22c-.26,0-.53-.08-.78-.08-1.88,0-2.87,1.35-2.92,3.37Z" transform="translate(-900.33 -508.64)"/><path class="cls-2" d="M936.23,561.75c-.15-2-1.25-3.58-3.44-3.58s-3.17,1.73-3.33,3.58Zm-6.82,1.16c.05,2.26,1.08,4.16,3.67,4.16a3.16,3.16,0,0,0,3.06-2.53h1.33a4.45,4.45,0,0,1-4.79,3.69c-3.16,0-4.64-2.72-4.64-5.61s1.58-5.61,4.73-5.61c3.54,0,4.83,2.59,4.83,5.9Z" transform="translate(-900.33 -508.64)"/><polygon class="cls-2" points="38.98 48.68 42.63 57.52 46.15 48.68 47.54 48.68 43.34 59.27 41.91 59.27 37.58 48.68 38.98 48.68"/><path class="cls-2" d="M956.32,561.75c-.15-2-1.25-3.58-3.44-3.58s-3.17,1.73-3.33,3.58Zm-6.82,1.16c0,2.26,1.08,4.16,3.67,4.16a3.16,3.16,0,0,0,3.06-2.53h1.33a4.45,4.45,0,0,1-4.79,3.69c-3.16,0-4.64-2.72-4.64-5.61s1.58-5.61,4.73-5.61c3.54,0,4.83,2.59,4.83,5.9Z" transform="translate(-900.33 -508.64)"/><path class="cls-2" d="M960.92,567.91h-1.26v-8.2c0-.83-.07-1.67-.11-2.39h1.31l.06,1.56h0a2.72,2.72,0,0,1,2.39-1.87c.42,0,.84,0,1.26,0v1.22c-.25,0-.52-.08-.78-.08-1.87,0-2.87,1.35-2.91,3.37Z" transform="translate(-900.33 -508.64)"/><polygon class="cls-2" points="67 48.68 70.57 57.54 74.11 48.68 75.48 48.68 69.64 63.32 68.25 63.32 69.85 59.27 65.47 48.68 67 48.68"/><path class="cls-2" d="M987.88,560.57c-.11-1.62-1.14-2.4-2.89-2.4-1.94,0-3.15,2-3.15,4.43s1.21,4.47,3.15,4.47a2.68,2.68,0,0,0,2.89-2.47h1.37a3.76,3.76,0,0,1-4.14,3.63c-3.16,0-4.64-2.72-4.64-5.61s1.59-5.61,4.73-5.61a3.74,3.74,0,0,1,4,3.56Z" transform="translate(-900.33 -508.64)"/><path class="cls-2" d="M992.28,558.93h0a3.64,3.64,0,0,1,3.32-1.92c3.45,0,3.73,3.06,3.73,4.28v6.62H998.1v-6.83a2.61,2.61,0,0,0-2.78-2.91c-2.09,0-3,1.75-3,3.65v6.09H991V552.68h1.26Z" transform="translate(-900.33 -508.64)"/><path class="cls-2" d="M1002.76,567.91h-1.26V557.32h1.26Zm.11-13.64h-1.48v-1.59h1.48Z" transform="translate(-900.33 -508.64)"/><rect class="cls-2" x="104.92" y="44.04" width="1.27" height="15.23"/><path class="cls-2" d="M1013,558.17c-2.4,0-3.18,2.23-3.18,4.26s.56,4.64,3,4.64c2.76,0,3.61-2.3,3.61-4.71,0-2.15-1-4.19-3.42-4.19m3.46,8.18,0-.08a4.32,4.32,0,0,1-3.63,2c-3.14,0-4.35-3-4.35-5.65s1.21-5.57,4.35-5.57a4.23,4.23,0,0,1,3.63,1.92l0,0v-6.2h1.26v12.85c0,.82.07,1.66.11,2.38h-1.31Z" transform="translate(-900.33 -508.64)"/></g></svg>